<?xml version="1.0" encoding="UTF-8"?>
<svg xmlns="http://www.w3.org/2000/svg" xmlns:xlink="http://www.w3.org/1999/xlink" width="394.335pt" height="55.7783pt" viewBox="0 0 394.335 55.7783" version="1.1">
<g id="surface1">
<path style=" stroke:none;fill-rule:nonzero;fill:rgb(56.864929%,56.079102%,56.274414%);fill-opacity:1;" d="M 0.894531 27.890625 C 0.894531 13.238281 12.773438 1.363281 27.421875 1.363281 C 42.074219 1.363281 53.953125 13.238281 53.953125 27.890625 C 53.953125 42.542969 42.074219 54.417969 27.421875 54.417969 C 12.773438 54.417969 0.894531 42.542969 0.894531 27.890625 "/>
<path style=" stroke:none;fill-rule:nonzero;fill:rgb(8.987427%,11.898804%,32.246399%);fill-opacity:1;" d="M 32.289062 51.625 C 32.289062 51.625 18.355469 44.726562 17.460938 25.769531 L 9.808594 31.855469 C 9.808594 31.855469 17.902344 47.683594 32.289062 51.625 "/>
<path style=" stroke:none;fill-rule:nonzero;fill:rgb(70.069885%,10.922241%,9.52301%);fill-opacity:1;" d="M 24.246094 42.898438 C 24.246094 42.898438 18.023438 28.652344 29.542969 13.5625 L 19.765625 13.296875 C 19.765625 13.296875 15.773438 30.621094 24.246094 42.898438 "/>
<path style=" stroke:none;fill-rule:nonzero;fill:rgb(97.941589%,70.602417%,11.549377%);fill-opacity:1;" d="M 24.484375 33.273438 C 24.484375 33.273438 27.121094 17.953125 45.039062 11.6875 L 37.019531 6.085938 C 37.019531 6.085938 24.15625 18.363281 24.484375 33.273438 "/>
<path style=" stroke:none;fill-rule:nonzero;fill:rgb(13.729858%,12.159729%,12.548828%);fill-opacity:1;" d="M 267.125 26.453125 C 267.042969 31.070312 266.707031 35.019531 263.894531 38.960938 C 260.789062 43.285156 256.128906 45.175781 250.839844 45.175781 C 240.894531 45.175781 233.964844 38.417969 233.964844 28.46875 C 233.964844 18.183594 240.933594 11.425781 251.136719 11.425781 C 257.640625 11.425781 262.679688 14.367188 265.40625 20.285156 L 257.597656 23.558594 C 256.464844 20.535156 254.074219 18.519531 250.753906 18.519531 C 245.339844 18.519531 242.53125 23.683594 242.53125 28.511719 C 242.53125 33.421875 245.46875 38.417969 250.882812 38.417969 C 254.449219 38.417969 257.179688 36.570312 257.515625 32.917969 L 250.800781 32.917969 L 250.800781 26.453125 Z M 267.125 26.453125 "/>
<path style=" stroke:none;fill-rule:nonzero;fill:rgb(13.729858%,12.159729%,12.548828%);fill-opacity:1;" d="M 279.136719 26.664062 L 279.933594 26.664062 C 282.621094 26.664062 285.640625 26.160156 285.640625 22.71875 C 285.640625 19.277344 282.621094 18.773438 279.933594 18.773438 L 279.136719 18.773438 Z M 297.226562 44.125 L 286.984375 44.125 L 279.21875 31.953125 L 279.136719 31.953125 L 279.136719 44.125 L 270.90625 44.125 L 270.90625 12.476562 L 283.207031 12.476562 C 289.460938 12.476562 294.203125 15.457031 294.203125 22.214844 C 294.203125 26.578125 291.769531 30.359375 287.277344 31.15625 Z M 297.226562 44.125 "/>
<path style=" stroke:none;fill-rule:nonzero;fill:rgb(13.729858%,12.159729%,12.548828%);fill-opacity:1;" d="M 306.421875 27.757812 C 306.421875 33.210938 310.449219 37.199219 315.363281 37.199219 C 320.273438 37.199219 324.304688 33.210938 324.304688 27.757812 C 324.304688 23.390625 320.273438 19.402344 315.363281 19.402344 C 310.449219 19.402344 306.421875 23.390625 306.421875 27.757812 M 332.867188 27.714844 C 332.867188 37.953125 325.519531 45.175781 315.363281 45.175781 C 305.203125 45.175781 297.859375 37.953125 297.859375 27.714844 C 297.859375 18.144531 306.253906 11.425781 315.363281 11.425781 C 324.46875 11.425781 332.867188 18.144531 332.867188 27.714844 "/>
<path style=" stroke:none;fill-rule:nonzero;fill:rgb(13.729858%,12.159729%,12.548828%);fill-opacity:1;" d="M 364.140625 12.476562 L 364.140625 30.273438 C 364.140625 34.347656 363.972656 38.375 360.824219 41.4375 C 358.179688 44.039062 354.023438 44.964844 350.332031 44.964844 C 346.636719 44.964844 342.480469 44.039062 339.835938 41.4375 C 336.6875 38.375 336.519531 34.347656 336.519531 30.273438 L 336.519531 12.476562 L 344.746094 12.476562 L 344.746094 29.140625 C 344.746094 33.253906 345.042969 37.746094 350.332031 37.746094 C 355.621094 37.746094 355.914062 33.253906 355.914062 29.140625 L 355.914062 12.476562 Z M 364.140625 12.476562 "/>
<path style=" stroke:none;fill-rule:nonzero;fill:rgb(13.729858%,12.159729%,12.548828%);fill-opacity:1;" d="M 377.574219 27 L 378.960938 27 C 381.941406 27 384.878906 27 384.878906 23.136719 C 384.878906 19.148438 382.152344 19.109375 378.960938 19.109375 L 377.574219 19.109375 Z M 369.347656 12.476562 L 381.941406 12.476562 C 388.738281 12.476562 393.441406 15.625 393.441406 22.886719 C 393.441406 30.359375 389.414062 33.632812 382.234375 33.632812 L 377.574219 33.632812 L 377.574219 44.125 L 369.347656 44.125 Z M 369.347656 12.476562 "/>
<path style=" stroke:none;fill-rule:nonzero;fill:rgb(13.729858%,12.159729%,12.548828%);fill-opacity:1;" d="M 82.566406 20.238281 C 81.058594 18.988281 79.136719 18.152344 77.132812 18.152344 C 75.625 18.152344 73.621094 19.027344 73.621094 20.78125 C 73.621094 22.621094 75.835938 23.332031 77.257812 23.792969 L 79.347656 24.417969 C 83.738281 25.714844 87.121094 27.929688 87.121094 33.027344 C 87.121094 36.160156 86.367188 39.378906 83.859375 41.511719 C 81.394531 43.601562 78.09375 44.480469 74.917969 44.480469 C 70.945312 44.480469 67.058594 43.144531 63.839844 40.882812 L 67.351562 34.285156 C 69.402344 36.078125 71.824219 37.542969 74.625 37.542969 C 76.546875 37.542969 78.59375 36.582031 78.59375 34.367188 C 78.59375 32.066406 75.375 31.273438 73.621094 30.773438 C 68.480469 29.308594 65.09375 27.96875 65.09375 21.871094 C 65.09375 15.476562 69.648438 11.296875 75.960938 11.296875 C 79.136719 11.296875 83.023438 12.300781 85.824219 13.886719 Z M 82.566406 20.238281 "/>
<path style=" stroke:none;fill-rule:nonzero;fill:rgb(13.729858%,12.159729%,12.548828%);fill-opacity:1;" d="M 103.542969 43.644531 L 95.351562 43.644531 L 95.351562 19.070312 L 88.582031 19.070312 L 88.582031 12.132812 L 110.3125 12.132812 L 110.3125 19.070312 L 103.542969 19.070312 Z M 103.542969 43.644531 "/>
<path style=" stroke:none;fill-rule:nonzero;fill:rgb(13.729858%,12.159729%,12.548828%);fill-opacity:1;" d="M 121.46875 19.070312 L 121.46875 24.335938 L 130.703125 24.335938 L 130.703125 31.273438 L 121.46875 31.273438 L 121.46875 36.703125 L 131.207031 36.703125 L 131.207031 43.644531 L 113.277344 43.644531 L 113.277344 12.132812 L 131.207031 12.132812 L 131.207031 19.070312 Z M 121.46875 19.070312 "/>
<path style=" stroke:none;fill-rule:nonzero;fill:rgb(13.729858%,12.159729%,12.548828%);fill-opacity:1;" d="M 136.660156 54.292969 L 144.304688 54.292969 L 144.304688 11.128906 L 136.660156 11.128906 Z M 136.660156 54.292969 "/>
<path style=" stroke:none;fill-rule:nonzero;fill:rgb(13.729858%,12.159729%,12.548828%);fill-opacity:1;" d="M 150.753906 54.292969 L 158.398438 54.292969 L 158.398438 11.128906 L 150.753906 11.128906 Z M 150.753906 54.292969 "/>
<path style=" stroke:none;fill-rule:nonzero;fill:rgb(13.729858%,12.159729%,12.548828%);fill-opacity:1;" d="M 179.59375 21.871094 L 179.511719 21.871094 L 176.125 31.902344 L 182.9375 31.902344 Z M 173.867188 38.167969 L 171.695312 43.644531 L 163 43.644531 L 175.125 12.132812 L 184.066406 12.132812 L 195.933594 43.644531 L 187.199219 43.644531 L 185.152344 38.167969 Z M 173.867188 38.167969 "/>
<path style=" stroke:none;fill-rule:nonzero;fill:rgb(13.729858%,12.159729%,12.548828%);fill-opacity:1;" d="M 206.671875 26.257812 L 207.464844 26.257812 C 210.140625 26.257812 213.148438 25.753906 213.148438 22.332031 C 213.148438 18.90625 210.140625 18.402344 207.464844 18.402344 L 206.671875 18.402344 Z M 224.679688 43.644531 L 214.484375 43.644531 L 206.753906 31.523438 L 206.671875 31.523438 L 206.671875 43.644531 L 198.480469 43.644531 L 198.480469 12.132812 L 210.722656 12.132812 C 216.949219 12.132812 221.675781 15.101562 221.675781 21.828125 C 221.675781 26.171875 219.246094 29.933594 214.777344 30.730469 Z M 224.679688 43.644531 "/>
</g>
</svg>
